<?xml version="1.0"?>
<svg xmlns="http://www.w3.org/2000/svg" xmlns:xlink="http://www.w3.org/1999/xlink" version="1.1" id="Capa_1" x="0px" y="0px" viewBox="0 0 50 50" style="enable-background:new 0 0 50 50;" xml:space="preserve" width="512px" height="512px"><g><path d="M1,24.5c-0.553,0-1-0.447-1-1c0-7.168,5.832-13,13-13h25c0.553,0,1,0.447,1,1s-0.447,1-1,1H13  c-6.065,0-11,4.935-11,11C2,24.053,1.553,24.5,1,24.5z" data-original="#43B05C" class="active-path" data-old_color="#43B05C" fill="#8900FF"/><polygon points="38,19.5 49,11.5 38,3.5 " data-original="#43B05C" class="active-path" data-old_color="#43B05C" fill="#8900FF"/><path d="M37,39.5H12c-0.553,0-1-0.447-1-1s0.447-1,1-1h25c6.065,0,11-4.935,11-11c0-0.553,0.447-1,1-1  s1,0.447,1,1C50,33.668,44.168,39.5,37,39.5z" data-original="#43B05C" class="active-path" data-old_color="#43B05C" fill="#8900FF"/><polygon points="12,30.5 1,38.5 12,46.5 " data-original="#43B05C" class="active-path" data-old_color="#43B05C" fill="#8900FF"/></g> </svg>
